<svg width="224" height="68" viewBox="0 0 224 68" fill="none" xmlns="http://www.w3.org/2000/svg">
<path d="M72.36 32.424L70.92 45H66.152L69.48 21.48L78.856 35.944L88.232 21.48L91.56 45H86.792L85.352 32.424L78.856 42.92L72.36 32.424ZM97.7108 40.616C97.7108 41.0213 97.8174 41.3627 98.0308 41.64C98.2441 41.896 98.5321 42.0987 98.8948 42.248C99.2788 42.376 99.6948 42.44 100.143 42.44C100.804 42.44 101.412 42.3333 101.967 42.12C102.521 41.9067 102.959 41.5547 103.279 41.064C103.599 40.5733 103.759 39.9227 103.759 39.112L104.271 40.84C104.271 41.7787 104.025 42.5893 103.535 43.272C103.044 43.9333 102.383 44.4453 101.551 44.808C100.74 45.1493 99.8228 45.32 98.7988 45.32C97.7961 45.32 96.9001 45.1493 96.1108 44.808C95.3214 44.4667 94.6921 43.9653 94.2228 43.304C93.7748 42.6213 93.5508 41.7893 93.5508 40.808C93.5508 39.8053 93.8068 38.952 94.3188 38.248C94.8521 37.5227 95.5881 36.968 96.5268 36.584C97.4868 36.2 98.6068 36.008 99.8868 36.008C100.676 36.008 101.412 36.104 102.095 36.296C102.777 36.488 103.353 36.712 103.823 36.968C104.292 37.224 104.623 37.4693 104.815 37.704V39.72C104.217 39.272 103.599 38.9413 102.959 38.728C102.319 38.5147 101.561 38.408 100.687 38.408C100.047 38.408 99.5028 38.504 99.0548 38.696C98.6068 38.888 98.2654 39.144 98.0308 39.464C97.8174 39.784 97.7108 40.168 97.7108 40.616ZM96.3988 34.472L94.8948 31.624C95.6414 31.2187 96.5588 30.8347 97.6468 30.472C98.7348 30.088 99.9401 29.896 101.263 29.896C102.543 29.896 103.663 30.0773 104.623 30.44C105.604 30.8027 106.372 31.336 106.927 32.04C107.481 32.7227 107.759 33.5653 107.759 34.568V45H103.759V35.24C103.759 34.5787 103.503 34.0667 102.991 33.704C102.479 33.32 101.817 33.128 101.007 33.128C100.303 33.128 99.6414 33.2133 99.0228 33.384C98.4254 33.5333 97.8921 33.7147 97.4227 33.928C96.9748 34.1413 96.6334 34.3227 96.3988 34.472ZM115.675 52.04H111.515V30.28H115.675V52.04ZM127.771 37.64C127.771 39.304 127.44 40.7227 126.779 41.896C126.117 43.0693 125.243 43.9547 124.155 44.552C123.088 45.1493 121.936 45.448 120.699 45.448C119.44 45.448 118.341 45.128 117.403 44.488C116.485 43.848 115.771 42.9413 115.259 41.768C114.768 40.5947 114.523 39.2187 114.523 37.64C114.523 36.04 114.768 34.664 115.259 33.512C115.771 32.3387 116.485 31.432 117.403 30.792C118.341 30.152 119.44 29.832 120.699 29.832C121.936 29.832 123.088 30.1307 124.155 30.728C125.243 31.3253 126.117 32.2107 126.779 33.384C127.44 34.536 127.771 35.9547 127.771 37.64ZM123.483 37.64C123.483 36.7653 123.301 36.0187 122.939 35.4C122.576 34.7813 122.085 34.312 121.467 33.992C120.869 33.672 120.208 33.512 119.483 33.512C118.864 33.512 118.256 33.672 117.659 33.992C117.083 34.2907 116.603 34.7493 116.219 35.368C115.856 35.9867 115.675 36.744 115.675 37.64C115.675 38.536 115.856 39.2933 116.219 39.912C116.603 40.5307 117.083 41 117.659 41.32C118.256 41.6187 118.864 41.768 119.483 41.768C120.208 41.768 120.869 41.608 121.467 41.288C122.085 40.968 122.576 40.4987 122.939 39.88C123.301 39.2613 123.483 38.5147 123.483 37.64ZM144.972 33.928L130.957 46.12L131.117 41.352L145.133 29.16L144.972 33.928ZM134.957 30.28V41.928L130.957 46.12V30.28H134.957ZM145.133 29.16V45H141.133V33.352L145.133 29.16ZM150.833 38.856V35.624H162.417V38.856H150.833ZM160.401 30.28H164.401V45H160.401V30.28ZM149.329 30.28H153.329V45H149.329V30.28ZM171.43 40.616C171.43 41.0213 171.536 41.3627 171.75 41.64C171.963 41.896 172.251 42.0987 172.614 42.248C172.998 42.376 173.414 42.44 173.862 42.44C174.523 42.44 175.131 42.3333 175.686 42.12C176.24 41.9067 176.678 41.5547 176.998 41.064C177.318 40.5733 177.478 39.9227 177.478 39.112L177.99 40.84C177.99 41.7787 177.744 42.5893 177.254 43.272C176.763 43.9333 176.102 44.4453 175.27 44.808C174.459 45.1493 173.542 45.32 172.518 45.32C171.515 45.32 170.619 45.1493 169.83 44.808C169.04 44.4667 168.411 43.9653 167.942 43.304C167.494 42.6213 167.27 41.7893 167.27 40.808C167.27 39.8053 167.526 38.952 168.038 38.248C168.571 37.5227 169.307 36.968 170.246 36.584C171.206 36.2 172.326 36.008 173.606 36.008C174.395 36.008 175.131 36.104 175.814 36.296C176.496 36.488 177.072 36.712 177.542 36.968C178.011 37.224 178.342 37.4693 178.534 37.704V39.72C177.936 39.272 177.318 38.9413 176.678 38.728C176.038 38.5147 175.28 38.408 174.406 38.408C173.766 38.408 173.222 38.504 172.774 38.696C172.326 38.888 171.984 39.144 171.75 39.464C171.536 39.784 171.43 40.168 171.43 40.616ZM170.118 34.472L168.614 31.624C169.36 31.2187 170.278 30.8347 171.366 30.472C172.454 30.088 173.659 29.896 174.982 29.896C176.262 29.896 177.382 30.0773 178.342 30.44C179.323 30.8027 180.091 31.336 180.646 32.04C181.2 32.7227 181.478 33.5653 181.478 34.568V45H177.478V35.24C177.478 34.5787 177.222 34.0667 176.71 33.704C176.198 33.32 175.536 33.128 174.726 33.128C174.022 33.128 173.36 33.2133 172.742 33.384C172.144 33.5333 171.611 33.7147 171.141 33.928C170.694 34.1413 170.352 34.3227 170.118 34.472Z" fill="#F1FFFA"/>
<path d="M18.8538 0.328896C18.6845 0.365379 18.4844 0.422707 18.4023 0.453972C18.3254 0.485237 17.6225 0.975113 16.8376 1.54317C16.0578 2.11122 14.7239 3.07014 13.8774 3.66946C12.2665 4.81077 11.7176 5.2798 11.1173 6.03547C10.2247 7.15593 9.47564 8.68811 9.17808 9.99619C9.03443 10.6268 8.99339 11.9349 9.10113 12.628C9.33712 14.2123 10.0913 15.6923 10.9429 16.2656C11.3225 16.521 11.4867 16.7034 11.6355 17.0265C11.7432 17.2662 11.7586 17.3548 11.7381 17.73C11.7176 18.0896 11.6868 18.2147 11.5483 18.4909C11.1686 19.2309 10.948 20.07 11.0045 20.5494C11.143 21.6491 11.9279 22.7226 13.0053 23.2698C13.1181 23.3272 13.4516 23.4627 13.7492 23.5721C14.8471 23.9682 15.2883 24.2444 15.2883 24.5258C15.2883 24.7134 14.9804 24.9844 14.4161 25.2919C13.3285 25.886 12.9283 26.626 13.4003 27.1732C13.6927 27.5068 14.1493 27.6892 15.3036 27.9185C16.499 28.1582 16.5708 28.2729 15.868 28.8305C15.6012 29.0389 15.3909 29.3204 15.3909 29.4611C15.3909 29.4819 15.437 29.5653 15.4986 29.6487C15.6063 29.805 15.8731 29.9666 16.1194 30.0291L16.2579 30.0604L16.1348 29.9353C15.8629 29.6591 16.0373 29.3673 16.7709 28.8617C17.5456 28.3302 17.7098 28.0696 17.4635 27.7725C17.2993 27.5745 17.0582 27.4442 16.6478 27.3244C16.4785 27.2775 16.2425 27.2045 16.1245 27.1628C15.6525 26.9908 15.7551 26.8553 17.3352 25.5629C17.5353 25.3961 17.7508 25.1877 17.8021 25.0938C17.9304 24.8854 17.9355 24.5362 17.8175 24.2861C17.602 23.817 16.8017 23.1917 15.6987 22.634C14.9702 22.2692 14.8265 22.1389 14.8265 21.8679C14.8265 21.7012 14.8676 21.623 15.0625 21.4093C15.2831 21.1696 15.4422 21.081 15.4422 21.1957C15.4422 21.2217 15.5602 21.3728 15.7038 21.5344C16.1963 22.0816 16.8068 22.2692 18.3151 22.337C19.1257 22.3787 19.2437 22.3943 19.5054 22.5142C19.8132 22.6601 20.0081 22.8894 20.0081 23.1187C20.0081 23.1917 19.8901 23.3688 19.6952 23.5773C19.0282 24.3017 19.0488 24.8281 19.7465 25.1512C19.9055 25.2241 20.0389 25.2867 20.0492 25.2919C20.0543 25.2971 19.9825 25.6098 19.8799 25.9798C19.7824 26.3498 19.6234 27.0273 19.531 27.4807L19.3617 28.3093L18.8076 28.5438L18.2536 28.7836L18.2792 29.7216C18.3767 32.8068 19.3874 35.6732 21.2702 38.2007C21.8191 38.9355 23.3172 40.4469 24.1278 41.0775C24.4869 41.3589 24.8563 41.6872 24.9537 41.8071C25.6463 42.6774 25.6976 43.9125 25.0717 44.8662C24.9691 45.0225 24.6767 45.3821 24.4202 45.6688C23.2351 46.9873 22.1423 48.3944 21.3317 49.6556C19.2488 52.8971 18.2638 55.9823 17.7765 60.7768C17.7354 61.2042 17.6944 61.5638 17.6841 61.569C17.6585 61.5951 16.1655 60.683 15.5448 60.2661C13.9595 59.1873 12.7077 58.1398 11.2302 56.6441C8.80357 54.1791 7.13622 51.8131 5.66383 48.7488C3.06277 43.3184 2.18549 37.2001 3.16025 31.2069C3.98109 26.1466 6.19225 21.2321 9.39355 17.3652L9.78858 16.8858L9.60902 16.7138C9.33199 16.4428 8.75226 15.5204 8.53679 14.9992C8.42906 14.7386 8.32645 14.5302 8.30593 14.5302C8.21871 14.5302 6.99771 16.0207 6.22303 17.0838C0.815702 24.4685 -1.14407 34.0993 0.902917 43.1673C3.45267 54.4553 11.9638 63.5389 22.9427 66.6919C27.9652 68.1355 33.4444 68.2762 38.5541 67.0827C50.8258 64.2216 60.322 54.0332 62.4357 41.4475C63.2309 36.7311 62.9795 31.8271 61.7123 27.2983C59.8192 20.5338 55.8176 14.6553 50.2102 10.3871C49.8767 10.1369 49.5997 9.93887 49.5945 9.94929C49.5843 9.95971 49.5535 10.1108 49.5227 10.2828C49.4919 10.4548 49.4509 10.632 49.4355 10.6789C49.4047 10.7414 49.4663 10.7727 49.7228 10.8196C50.8617 11.0333 51.2362 12.1954 50.5385 13.342C50.4051 13.5556 50.3897 13.6182 50.4205 13.8214C50.4564 14.0455 50.4975 14.0976 51.1336 14.6969C51.9083 15.4266 52.7753 16.3594 53.5243 17.261C59.1317 24.0568 61.3839 33.0466 59.6602 41.7602C58.8342 45.9502 57.0181 50.0725 54.494 53.486C53.668 54.6065 52.9446 55.4455 51.8211 56.592C49.7331 58.7131 47.9118 60.1098 45.3518 61.5638C44.0846 62.283 42.2069 63.1272 40.9192 63.5494L40.3138 63.7526L40.2266 63.6275C40.1804 63.5598 39.9188 63.1168 39.6469 62.6373C38.7132 61.0218 37.9744 59.4375 37.5845 58.218C37.405 57.6552 37.251 56.9256 37.3023 56.8787C37.3126 56.8682 38.6875 56.7484 40.3497 56.6129C42.0171 56.4826 44.0333 56.3158 44.8387 56.2481L46.3009 56.1178L46.819 55.8624C47.4552 55.5497 48.194 55.1224 49.2765 54.4345C50.3589 53.7466 52.0417 52.6261 52.0776 52.5688C52.093 52.5427 52.3085 51.7141 52.5598 50.7291L53.0113 48.9364L52.0879 47.4355C50.2615 44.4597 49.6664 43.3757 49.3842 42.5158L49.2405 42.0728L49.4663 41.8331C49.7331 41.5569 49.7792 41.4058 49.6715 41.1452C49.5997 40.9524 49.2457 40.6657 49.0097 40.6084C48.9019 40.5772 48.8917 40.5459 48.8917 40.2749C48.8917 40.0143 48.9071 39.9622 49.0199 39.8892C49.0866 39.8423 49.1841 39.7277 49.2303 39.6391C49.3124 39.4723 49.3124 39.4723 49.1585 39.3316C49.061 39.243 48.9122 39.1753 48.7686 39.1544L48.5326 39.1179V38.6124V38.1069L48.9379 37.9401C49.6766 37.6327 50.0768 37.2991 50.1948 36.9031C50.2871 36.5956 49.9896 36.1161 49.4458 35.7096L49.1533 35.4907L49.3021 35.4282C49.5278 35.3344 49.7484 35.0478 49.8408 34.7403C49.8818 34.5944 49.9177 34.4485 49.9177 34.4172C49.9177 34.3859 50.0255 34.3025 50.1537 34.2348C50.4154 34.0889 50.6155 33.8543 50.6462 33.6563C50.6565 33.5469 50.754 33.4791 51.2003 33.2602C51.975 32.8746 51.9442 32.9059 51.9339 32.4212C51.9288 32.1971 51.8929 31.8323 51.8519 31.6082L51.78 31.1965L52.4983 29.9457C53.1703 28.7627 53.2063 28.6898 53.1242 28.6012C53.0421 28.5074 53.0472 28.4917 53.2473 28.2259C53.5602 27.7986 53.6782 27.4911 53.7039 27.0065C53.7295 26.5114 53.6423 26.1466 53.3704 25.6202C53.1703 25.2293 52.7291 24.703 52.4521 24.5362C52.3341 24.458 52.2879 24.4007 52.3187 24.359C52.4418 24.2079 52.5855 23.6763 52.5855 23.3845C52.5855 23.0145 52.488 22.7487 52.2623 22.5142C52.0776 22.3161 51.6261 22.066 51.3542 22.0087C51.0874 21.9513 51.0721 21.9253 51.2465 21.8367C51.8826 21.524 52.1905 20.0074 51.8878 18.6525C51.6159 17.4278 50.5642 16.7138 49.1482 16.7867C48.8712 16.8024 48.5377 16.8545 48.3735 16.9118C48.117 17.0004 48.0708 17.0004 47.9118 16.9379C47.6604 16.8337 47.2038 16.8858 46.9063 17.0577L46.66 17.1932L46.5677 17.0786C46.5164 17.0161 46.4856 16.9483 46.4907 16.9327C46.501 16.9118 46.7472 16.6773 47.0448 16.4063C47.8246 15.7028 49.0712 14.4207 49.1687 14.2279C49.2149 14.1341 49.2405 14.0351 49.2252 14.009C49.1431 13.8787 48.6762 14.0195 48.312 14.28C48.2145 14.353 48.3171 14.2071 48.5736 13.91C49.1482 13.2429 49.4458 12.8364 49.5997 12.5029C49.7433 12.185 49.7177 12.0651 49.4919 12.0391C49.2559 12.0078 48.9276 12.2423 48.2607 12.9094L47.5988 13.5661L47.8041 13.2273C48.1683 12.6071 48.2094 12.3414 47.9272 12.3414C47.7168 12.3414 47.3731 12.5863 46.9729 13.0241C46.778 13.2377 46.66 13.3368 46.7113 13.2534C47.8656 11.3877 48.471 10.1108 48.3273 9.83984C48.0862 9.38123 47.0191 10.4183 45.8289 12.2684C45.7417 12.4039 45.9469 11.9244 46.2958 11.1844C47.0602 9.55843 47.6194 8.02625 47.6296 7.54679C47.6348 7.28622 47.6245 7.26016 47.5168 7.24453C47.2449 7.20284 46.6703 7.71356 46.1675 8.43796C45.5826 9.27179 44.6489 11.1219 44.0487 12.628C43.8691 13.0866 43.705 13.4253 43.6947 13.3837C43.6793 13.342 43.6177 12.8938 43.5562 12.3935C43.3151 10.4392 43.038 8.92263 42.8892 8.7298L42.802 8.62036L42.7405 8.73501C42.5712 9.05812 42.566 10.2985 42.7097 13.7224L42.7353 14.2957L42.5352 13.3576C42.1453 11.5023 41.8837 10.8457 41.7554 11.3824C41.6888 11.643 41.6067 13.4045 41.6067 14.5198V15.5829L41.3296 15.0148C40.7602 13.8631 40.1497 13.2638 39.4212 13.1439C39.1441 13.1022 38.6311 13.2377 38.272 13.4514C37.8975 13.6703 37.092 14.4937 36.6867 15.0617C36.5072 15.3171 36.3481 15.5204 36.3276 15.5204C36.3122 15.5204 36.2096 15.4891 36.0967 15.4474C35.8556 15.364 35.6247 15.4057 35.3528 15.5881C35.1579 15.7184 34.8347 16.1562 34.8347 16.2812C34.8347 16.3334 34.768 16.3438 34.5833 16.3177C34.3781 16.2917 34.3011 16.3073 34.178 16.3959C33.9728 16.547 33.8907 16.7711 33.9266 17.0786C33.9523 17.3131 33.9471 17.3392 33.8035 17.4434C33.5265 17.6519 33.5111 17.9385 33.7624 18.2095L33.8651 18.3189L33.7111 18.3502C33.5572 18.3815 33.4033 18.5065 33.311 18.6681C33.2699 18.7463 33.234 18.7515 33.0288 18.6994C32.7159 18.616 32.408 18.7046 32.1772 18.9391C31.9104 19.2101 31.7822 19.184 31.6231 18.8244C31.3461 18.1834 31.2845 17.5007 31.4538 16.9014C31.5154 16.6825 31.5256 16.6877 31.5769 16.99C31.6129 17.2245 31.8078 17.4747 31.9874 17.5216C32.0746 17.5424 32.2028 17.5164 32.3619 17.4434C32.5773 17.3392 32.5927 17.3235 32.4747 17.3027C32.0387 17.2297 32.3311 16.4324 32.9108 16.1353C33.0237 16.0728 33.2751 15.9738 33.4751 15.9008C34.5628 15.5256 34.7218 14.4416 33.9215 12.826C33.6804 12.3466 33.2392 11.6639 32.9057 11.2678L32.68 10.9968L32.8595 10.6945C33.1776 10.1577 33.2648 9.87112 33.2648 9.3187C33.2648 8.76628 33.1725 8.44838 32.8749 7.98456C32.6235 7.58849 31.9515 6.94226 31.2127 6.38464L30.5406 5.87391L30.5098 5.49868C30.4585 4.89936 30.2174 4.4616 29.5813 3.81538C28.627 2.84604 27.1598 2.02263 25.2154 1.38161C23.548 0.829201 22.1475 0.474815 21.0701 0.328896C20.3416 0.235092 19.2796 0.235092 18.8538 0.328896ZM29.2324 20.0543C29.5402 20.3566 29.6172 20.5338 29.5915 20.8934C29.5761 21.1383 29.4992 21.3312 29.1708 21.993C28.822 22.6914 28.7707 22.8425 28.7604 23.0874C28.7553 23.2959 28.7809 23.4053 28.8425 23.4731C28.9246 23.5669 28.8989 23.5721 27.919 23.5721C27.0674 23.5721 26.8622 23.5877 26.6262 23.6711C26.0516 23.8691 25.8054 24.1193 25.8054 24.4997C25.8054 25.0261 26.0927 25.245 27.837 26.0267C28.7912 26.4488 30.202 27.1472 30.4226 27.2931C30.4842 27.3348 30.4739 27.3713 30.3508 27.5016L30.2072 27.6527L30.5714 28.7575L30.9305 29.8676L30.7407 29.8363C30.4534 29.7894 29.7813 29.4298 29.294 29.0598C28.8117 28.7002 27.6164 27.538 27.2162 27.0429L26.9597 26.725H26.6519C26.0721 26.725 25.5181 26.5166 25.1282 26.1622C24.6921 25.7609 24.5023 25.2606 24.5023 24.5102C24.5023 23.9994 24.5638 23.6503 24.7588 22.978C24.887 22.5506 24.8922 22.5454 25.0358 22.5767C25.4206 22.6497 26.7442 22.7695 27.0828 22.7539L27.4573 22.7383L27.6523 22.1911C27.9037 21.4719 28.0216 21.2061 28.2987 20.7214C28.5193 20.341 28.9041 19.8459 28.981 19.8459C29.0015 19.8459 29.1144 19.9397 29.2324 20.0543ZM28.704 24.1193C29.4581 24.187 29.4889 24.1975 29.3812 24.3173C29.2991 24.4059 29.3145 24.4268 29.5505 24.6665L29.807 24.9219L29.6993 25.0365L29.5966 25.146L30.3918 25.8651C30.833 26.256 31.1922 26.5948 31.1922 26.6104C31.1922 26.6573 30.869 26.9856 30.8228 26.9856C30.7971 26.9856 30.6843 26.897 30.5611 26.7824C29.8686 26.1361 28.8528 25.5785 27.601 25.1616C26.7699 24.8854 26.6108 24.8072 26.5236 24.6404C26.3953 24.3955 26.7083 24.1923 27.3342 24.1245C27.9037 24.062 28.0165 24.062 28.704 24.1193Z" fill="#F1FFFA"/>
<path d="M31.3461 4.12805C31.3461 4.13848 31.4025 4.27398 31.4692 4.42511C31.5359 4.58145 31.618 4.82118 31.6488 4.9671C31.7052 5.20683 31.7411 5.24852 32.131 5.54037C32.3619 5.71234 32.7979 6.09278 33.0955 6.38462C33.6085 6.89014 33.6547 6.92141 33.8548 6.92141C34.2036 6.92141 35.4093 7.07254 36.3481 7.2341C37.8769 7.49988 39.6212 7.95328 40.9295 8.42753C41.2424 8.54218 41.5092 8.62035 41.5194 8.5995C41.5297 8.57866 41.5707 8.46401 41.6067 8.33893C41.6939 8.0523 42.0325 7.66144 42.2992 7.54157C42.6225 7.39044 43.0739 7.41129 43.4074 7.58848C43.7614 7.77609 43.9717 8.08878 44.1615 8.70895L44.3052 9.17798L44.5053 8.81839C44.613 8.62035 44.8593 8.21907 45.0491 7.92201L45.4031 7.38523L44.9054 7.15071C41.1757 5.38402 37.4101 4.41469 33.2597 4.15932C32.3875 4.10721 31.3461 4.08636 31.3461 4.12805Z" fill="#F1FFFA"/>
</svg>
